#!OML:ASF F:\VICON\USERDATA\INSTALL\rory3\rory3.ASF
:FULLY-SPECIFIED
:DEGREES
99
root 1.255148636234937 17.824899563916862 52.54746248893354 -4.43644793104078 2.7314451782388467 -0.03511041905357892
lfemur -6.523380533025492 -3.680431643690321 -24.175076048203312
ltibia 23.96516796335617
lfoot -8.484612064854659 -2.269198561743965
ltoes -16.626484377285262
rfemur -21.499125637419144 -2.851144773735732 20.444699272083135
rtibia 61.10336226058213
rfoot -4.1674400372352025 -6.756443962258584
rtoes 6.173134254328074
lowerback 10.636971019310902 -0.19198459998339232 -1.0800618115116198
upperback -0.13851685486195944 -0.3170118197015514 0.9764956650194808
thorax -5.994944928839779 -0.12096662712132819 1.283235084171462
lowerneck -16.668717110147178 -3.8056082165840444 -1.5931841625885417
upperneck 21.26041831789086 -5.397125695968743 2.3769888319538133
head 9.681456045668053 -2.3670404578156212 0.3816534786051238
lclavicle -2.5034881568691565e-15 -2.7392085341126656e-15
lhumerus -26.08127248293338 -0.4776535718910364 81.05061477541351
lradius 28.22705650255595
lwrist 7.919622955772692
lhand -29.145719294999772 19.52718403562814
lfingers nan
lthumb -2.594351416236609 49.48362416139809
rclavicle -2.4989649122776148e-15 -2.7355158962993654e-15
rhumerus -32.13340148594781 -20.880554781469392 -78.33146156986281
rradius 31.5888029837853
rwrist 2.009406501414561
rhand -17.74995308600343 21.74182671373352
rfingers nan
rthumb 8.443614909943406 -7.76555533893962
100
root 1.278785134120049 17.823223983245775 53.57491063182515 -4.4627186585453735 2.336992931094594 1.1368403759399368
lfemur -2.622659905948354 -3.9462407784441833 -25.60034938848137
ltibia 22.252601414070483
lfoot -7.402549840918515 -3.3632060415924268
ltoes -17.03194172353541
rfemur -25.148012524270477 -3.1394852623172245 19.20319340616422
rtibia 61.293221281688425
rfoot -4.439849618589221 -5.387193731039407
rtoes 5.383257495769145
lowerback 10.572508736534935 -0.4439993973287365 -2.096725202965917
upperback -0.12522574021139538 -0.8374341060942068 0.9177598717469733
thorax -5.989165317151509 -0.3623539551868774 1.927588048126578
lowerneck -16.753039850369575 -3.7232089409065185 -1.5952989015095467
upperneck 21.260118675890297 -5.245629687920027 2.335782863381087
head 9.697276425450257 -2.3122879545712687 0.39720912926627827
lclavicle -2.503288416779646e-15 -2.7363599149062295e-15
lhumerus -25.9493801382164 -0.5771240689412847 81.09434279564606
lradius 27.800345561290282
lwrist 7.995968096997114
lhand -29.096059091751027 19.503968938022076
lfingers nan
lthumb -2.519141674966078 49.49508208601343
rclavicle -2.4960357794356444e-15 -2.7318029856054245e-15
rhumerus -32.55061571189709 -21.23370112416495 -78.23627553873132
rradius 31.727264189540033
rwrist 1.9390938348585682
rhand -17.721200070765775 21.797302399726558
rfingers nan
rthumb 8.42752642436819 -7.7816255896916005
101
root 1.2955939039656494 17.829122266197036 54.38962647753784 -4.239296695884895 1.9876879912133931 1.2058740073201193
lfemur 0.8560260077533908 -4.174111330214892 -25.94445883200123
ltibia 20.8927234827302
lfoot -6.807302745210673 -4.584057947970372
ltoes -15.597179064637952
rfemur -27.691741525509155 -2.944191342182523 19.316437738182685
rtibia 59.16588585625756
rfoot -4.581902315613457 -4.441825522028791
rtoes 4.7194674342753355
lowerback 10.496958513291403 -0.7508672308342093 -2.264766200486143
upperback -0.16022500063151895 -1.2569119007391454 1.0343112791608418
thorax -6.0211566086292 -0.5605964351239919 2.4856818291348795
lowerneck -16.806004000298664 -3.625018098172484 -1.606060331018045
upperneck 21.32341601754865 -5.064597990988017 2.236089406077734
head 9.72341258552723 -2.249546096492167 0.40109986083023064
lclavicle -2.504267642859015e-15 -2.7344721189901386e-15
lhumerus -25.97554313125506 -0.6911606512754509 81.17647155962842
lradius 27.19416993663823
lwrist 8.145770778287032
lhand -29.06855052952062 19.46527884637631
lfingers nan
lthumb -2.4632310395831927 49.45696701770253
rclavicle -2.4935203264854743e-15 -2.7285193491718958e-15
rhumerus -32.88210629409965 -21.49196033588535 -78.06316591465313
rradius 31.911375129972594
rwrist 1.9203707183331888
rhand -17.730614675944278 21.778873576539414
rfingers nan
rthumb 8.436700552190716 -7.748535804786122
102
root 1.3139570539526746 17.832186162166806 54.93585026194232 -4.211043240365535 1.434712020426581 1.8819340789085985
lfemur 4.575240417735376 -4.256397994003683 -26.735738513139754
ltibia 19.49854399822712
lfoot -5.721147256293648 -5.242484640803372
ltoes -14.493003196320469
rfemur -28.529276384747043 -2.516741044389648 19.07350100129129
rtibia 55.11928722603576
rfoot -4.608658186870848 -3.8886642899570205
rtoes 4.231706930346348
lowerback 10.4658795719351 -1.0078624108172411 -2.9576118812713705
upperback -0.1642995178372341 -1.7101264346846403 1.0731541731313157
thorax -6.016478402455502 -0.7791268323758657 3.030728445338303
lowerneck -16.824034089069862 -3.5097581496880035 -1.630957125999707
upperneck 21.458049377876254 -4.8530991582547545 2.0839365243783403
head 9.764161271770178 -2.1776849957299387 0.3946895618873739
lclavicle -2.5051903248666304e-15 -2.732907799478051e-15
lhumerus -26.15434829049608 -0.8207929730934151 81.27639299419972
lradius 26.45901519757706
lwrist 8.405909867051552
lhand -29.055586868942008 19.412222429158717
lfingers nan
lthumb -2.4245401028115974 49.37238132981627
rclavicle -2.4908681498543906e-15 -2.7253908581005335e-15
rhumerus -33.12189727578041 -21.674580005311544 -77.82872591691654
rradius 32.10567968748846
rwrist 1.9657543079941215
rhand -17.707439390331356 21.81687528039173
rfingers nan
rthumb 8.416819231654225 -7.786461741571512
103
root 1.3281974533942493 17.82672780054332 55.24939536722447 -4.372345820675376 1.0651977591591877 3.1129495762459602
lfemur 7.907962597672865 -4.385962390470786 -27.913342343596355
ltibia 18.326315427933302
lfoot -4.90340548518642 -6.1211801368542424
ltoes -13.515585090314444
rfemur -28.16182957401665 -2.3602513370251597 18.30450076851661
rtibia 49.88111620339599
rfoot -4.659825669176694 -3.541101419028508
rtoes 3.9393203903784695
lowerback 10.478120514519242 -1.1950780607337648 -3.9417383003573034
upperback -0.12630527178291234 -2.1027479793766615 1.053268408740026
thorax -5.9390377857672485 -0.9554724371736752 3.559999199508013
lowerneck -16.796811097799317 -3.3863930461280414 -1.6951540552078326
upperneck 21.65584640851642 -4.619246759813068 1.9072255630876647
head 9.81974260309018 -2.098877340077459 0.38566997047821217
lclavicle -2.5069797967098422e-15 -2.731995646821387e-15
lhumerus -26.47720065395083 -0.9196902717708215 81.37430899349002
lradius 25.66326089223454
lwrist 8.704576925999103
lhand -29.047762524412825 19.350467860449275
lfingers nan
lthumb -2.402028417810394 49.238452598100174
rclavicle -2.48851598182628e-15 -2.722538802440258e-15
rhumerus -33.26796706264908 -21.82108530103397 -77.54468467670641
rradius 32.2907335196191
rwrist 2.069083107478533
rhand -17.73356694728018 21.76609312053658
rfingers nan
rthumb 8.407245005139877 -7.801079146389782
